<?xml version="1.0" encoding="UTF-8"?>
<svg width="834px" height="614px" viewBox="0 0 834 614" version="1.1" xmlns="http://www.w3.org/2000/svg" xmlns:xlink="http://www.w3.org/1999/xlink">
    <!-- Generator: Sketch 46 (44423) - http://www.bohemiancoding.com/sketch -->
    <title>Main Mark@1x</title>
    <desc>Created with Sketch.</desc>
    <defs>
        <path d="M354.738713,71.2934932 L290.216109,200.426259 C289.073527,202.780254 287.158022,203.957233 284.469572,203.957233 C284.133515,203.957233 283.629442,203.889977 282.95733,203.755463 C281.478668,203.419178 280.285681,202.662549 279.378345,201.485551 C278.470986,200.308554 278.017318,198.980248 278.017318,197.500595 L278.017318,139.39085 L219.94697,139.39085 C218.46832,139.39085 217.140917,138.936874 215.964718,138.0289 C214.788518,137.120948 214.032401,135.927151 213.696344,134.447487 C213.360287,132.967845 213.494708,131.555455 214.099611,130.210318 C214.704513,128.865181 215.679065,127.85635 217.023292,127.183782 L346.068501,62.6173988 C346.942234,62.1465873 347.916799,61.9112041 348.992175,61.9112041 C350.80687,61.9112041 352.319112,62.5501239 353.528924,63.8280088 C354.537092,64.7696093 355.158777,65.92978 355.394023,67.3085434 C355.62927,68.6873068 355.410825,70.0156083 354.738713,71.2934932 Z M347.844201,354.433023 L218.711435,289.91042 C216.357441,288.767837 215.180461,286.852332 215.180461,284.163882 C215.180461,283.827826 215.247717,283.323752 215.382231,282.65164 C215.718516,281.172979 216.475146,279.979991 217.652143,279.072655 C218.82914,278.165296 220.157446,277.711628 221.6371,277.711628 L279.746844,277.711628 L279.746844,219.641281 C279.746844,218.162631 280.20082,216.835228 281.108795,215.659028 C282.016747,214.482828 283.210543,213.726712 284.690208,213.390655 C286.16985,213.054598 287.582239,213.189019 288.927377,213.793921 C290.272514,214.398823 291.281344,215.373375 291.953913,216.717602 L356.520296,345.762811 C356.991107,346.636544 357.226491,347.61111 357.226491,348.686485 C357.226491,350.50118 356.587571,352.013422 355.309686,353.223234 C354.368085,354.231403 353.207915,354.853088 351.829151,355.088334 C350.450388,355.32358 349.122086,355.105136 347.844201,354.433023 Z M65.895041,348.705995 L129.208308,218.405532 C130.35089,216.051538 132.266395,214.874558 134.954845,214.874558 C135.290902,214.874558 135.794975,214.941814 136.467087,215.076328 C137.945748,215.412613 139.138736,216.169243 140.046072,217.34624 C140.953431,218.523237 141.407099,219.851543 141.407099,221.331197 L141.407099,279.440941 L199.477446,279.440941 C200.956096,279.440941 202.2835,279.894917 203.459699,280.802892 C204.635899,281.710843 205.392015,282.90464 205.728072,284.384305 C206.064129,285.863947 205.929709,287.276336 205.324806,288.621473 C204.719904,289.966611 203.745352,290.975441 202.401125,291.64801 L74.5652525,357.382089 C73.6915197,357.852901 72.7169542,358.088284 71.6415786,358.088284 C69.8268837,358.088284 68.3146417,357.449364 67.10483,356.171479 C66.0966612,355.229879 65.4749762,354.069708 65.2397301,352.690945 C65.0044839,351.312181 65.2229284,349.98388 65.895041,348.705995 Z M71.5802154,64.3987685 L200.712982,128.921372 C203.066976,130.063954 204.243955,131.979459 204.243955,134.66791 C204.243955,135.003966 204.176699,135.508039 204.042186,136.180152 C203.705901,137.658813 202.949271,138.8518 201.772274,139.759136 C200.595276,140.666495 199.26697,141.120163 197.787317,141.120163 L139.677572,141.120163 L139.677572,199.190511 C139.677572,200.669161 139.223596,201.996564 138.315622,203.172763 C137.40767,204.348963 136.213873,205.10508 134.734209,205.441137 C133.254567,205.777194 131.842177,205.642773 130.49704,205.037871 C129.151903,204.432968 128.143073,203.458417 127.470504,202.114189 L62.9041211,73.06898 C62.4333095,72.1952472 62.1979263,71.2206817 62.1979263,70.1453061 C62.1979263,68.3306112 62.8368461,66.8183692 64.114731,65.6085576 C65.0563316,64.6003887 66.2165023,63.9787038 67.5952656,63.7434576 C68.974029,63.5082114 70.3023306,63.7266559 71.5802154,64.3987685 Z" id="path-1"></path>
    </defs>
    <g id="Page-1" stroke="none" stroke-width="1" fill="none" fill-rule="evenodd">
        <g id="Main-Mark">
            <g id="Group-2" transform="translate(208.000000, 106.000000)">
                <mask id="mask-2" fill="white">
                    <use xlink:href="#path-1"></use>
                </mask>
                <use id="Page-1-Copy" fill="#7ED321" transform="translate(209.712208, 209.999744) rotate(-44.000000) translate(-209.712208, -209.999744) " xlink:href="#path-1"></use>
            </g>
        </g>
    </g>
</svg>